# Blender v2.79 (sub 0) OBJ File: ''
# www.blender.org
mtllib big_box.mtl
o Cube_Cube.001
v -50.000000 -50.000000 50.000000
v -50.000000 50.000000 50.000000
v -50.000000 -50.000000 -50.000000
v -50.000000 50.000000 -50.000000
v 50.000000 -50.000000 50.000000
v 50.000000 50.000000 50.000000
v 50.000000 -50.000000 -50.000000
v 50.000000 50.000000 -50.000000
vt -7.833327 -7.833333
vt 8.833334 -24.499998
vt 8.833338 -7.833336
vt -24.499998 8.833336
vt -7.833335 -7.833331
vt -7.833333 8.833333
vt -24.499994 -7.833331
vt -7.833333 -24.499998
vt -7.833330 -7.833330
vt 8.833338 8.833333
vt -7.833327 8.833333
vt 8.833338 -7.833338
vt 25.500000 -24.499998
vt 25.500000 -7.833338
vt -7.833335 25.499998
vt -24.500000 8.833339
vt -7.833338 8.833336
vt -7.833330 -24.499996
vt -24.500000 -24.499994
vt 8.833334 -7.833331
vt 8.833338 -24.499996
vt -24.499996 25.499998
vn -1.0000 0.0000 0.0000
vn 0.0000 0.0000 -1.0000
vn 1.0000 0.0000 0.0000
vn 0.0000 0.0000 1.0000
vn 0.0000 -1.0000 0.0000
vn 0.0000 1.0000 0.0000
usemtl Material.002
s off
f 2/1/1 3/2/1 1/3/1
f 4/4/2 7/5/2 3/6/2
f 8/7/3 5/8/3 7/5/3
f 6/9/4 1/10/4 5/11/4
f 7/12/5 1/13/5 3/14/5
f 4/15/6 6/16/6 8/17/6
f 2/1/1 4/18/1 3/2/1
f 4/4/2 8/7/2 7/5/2
f 8/7/3 6/19/3 5/8/3
f 6/9/4 2/20/4 1/10/4
f 7/12/5 5/21/5 1/13/5
f 4/15/6 2/22/6 6/16/6
